<?xml version="1.0" encoding="UTF-8"?>
<svg width="149px" height="40px" viewBox="0 0 149 40" version="1.1" xmlns="http://www.w3.org/2000/svg" xmlns:xlink="http://www.w3.org/1999/xlink">
    <!-- Generator: Sketch 47.1 (45422) - http://www.bohemiancoding.com/sketch -->
    <title>MaliUred-Logo-White Copy</title>
    <desc>Created with Sketch.</desc>
    <defs></defs>
    <g id="Website" stroke="none" stroke-width="1" fill="none" fill-rule="evenodd">
        <g id="MaliUred-PoÄetna" transform="translate(-376.000000, -86.000000)" fill="#3A4763">
            <g id="MaliUred-Logo-White-Copy" transform="translate(376.000000, 86.000000)">
                <path d="M31.5088392,37.7192727 C31.3794528,37.5999994 31.3147605,37.4409707 31.3147605,37.2421818 L31.3147605,17.7112727 C31.3147605,17.492605 31.3794528,17.323637 31.5088392,17.2043636 C31.6382256,17.0850903 31.8024444,17.0254545 32.0015005,17.0254545 L32.747957,17.0254545 C33.0465411,17.0254545 33.2555468,17.1546654 33.3749804,17.4130909 L40.1528055,30.5927273 L46.9604888,17.4130909 C47.099828,17.1546654 47.3088337,17.0254545 47.5875122,17.0254545 L48.3041105,17.0254545 C48.5230721,17.0254545 48.6922672,17.0850903 48.8117009,17.2043636 C48.9311345,17.323637 48.9908504,17.492605 48.9908504,17.7112727 L48.9908504,37.2421818 C48.9908504,37.4409707 48.9261582,37.5999994 48.7967717,37.7192727 C48.6673853,37.8385461 48.5031665,37.8981818 48.3041105,37.8981818 L47.7666618,37.8981818 C47.5676057,37.8981818 47.4083633,37.8385461 47.2889296,37.7192727 C47.169496,37.5999994 47.1097801,37.4409707 47.1097801,37.2421818 L47.1097801,21.0807273 L41.4068524,32.2923636 C41.2277019,32.6899414 40.9191697,32.8887273 40.4812463,32.8887273 L39.8243646,32.8887273 C39.3864413,32.8887273 39.077909,32.6899414 38.8987586,32.2923636 L33.1958309,21.0807273 L33.1958309,37.2421818 C33.1958309,37.4409707 33.136115,37.5999994 33.0166813,37.7192727 C32.8972477,37.8385461 32.7380052,37.8981818 32.5389492,37.8981818 L32.0015005,37.8981818 C31.8024444,37.8981818 31.6382256,37.8385461 31.5088392,37.7192727 Z M54.7920919,37.6 C53.9759621,37.2024223 53.3240632,36.6657003 52.8363759,35.9898182 C52.3486885,35.313936 52.1048485,34.5684889 52.1048485,33.7534545 C52.1048485,32.441448 52.6373155,31.3680042 53.7022654,30.5330909 C54.7672154,29.6981776 56.2053738,29.1614557 58.016784,28.9229091 L62.7343891,28.2669091 L62.7343891,27.2232727 C62.7343891,26.1299339 62.4009752,25.2900635 61.7341374,24.7036364 C61.0672996,24.1172092 60.0471526,23.824 58.6736657,23.824 C57.6584798,23.824 56.8274332,24.0227859 56.180501,24.4203636 C55.5335688,24.8179414 55.1205337,25.2950275 54.9413832,25.8516364 C54.8617608,26.090183 54.7672106,26.2541814 54.6577298,26.3436364 C54.5482489,26.4330914 54.4039354,26.4778182 54.224785,26.4778182 L53.8067693,26.4778182 C53.6276189,26.4778182 53.4733528,26.4132128 53.3439663,26.284 C53.2145799,26.1547872 53.1498876,26.0007282 53.1498876,25.8218182 C53.1498876,25.3844827 53.3489407,24.872609 53.7470528,24.2861818 C54.1451649,23.6997546 54.7622295,23.187881 55.5982649,22.7505455 C56.4343004,22.3132099 57.4594237,22.0945455 58.6736657,22.0945455 C60.8035656,22.0945455 62.316369,22.6014495 63.2121212,23.6152727 C64.1078735,24.629096 64.5557429,25.8615685 64.5557429,27.3127273 L64.5557429,37.2421818 C64.5557429,37.4409707 64.496027,37.5999994 64.3765934,37.7192727 C64.2571598,37.8385461 64.0979173,37.8981818 63.8988612,37.8981818 L63.3912708,37.8981818 C63.1922147,37.8981818 63.0329723,37.8385461 62.9135386,37.7192727 C62.794105,37.5999994 62.7343891,37.4409707 62.7343891,37.2421818 L62.7343891,35.8407273 C62.2964657,36.4967306 61.6545196,37.053331 60.8085313,37.5105455 C59.9625431,37.9677599 58.8428695,38.1963636 57.4494771,38.1963636 C56.494008,38.1963636 55.6082218,37.9975777 54.7920919,37.6 Z M61.3310509,35.0356364 C62.2666144,34.0814498 62.7343891,32.7098271 62.7343891,30.9207273 L62.7343891,29.9069091 L58.8826735,30.4436364 C57.2504138,30.6623041 56.0162848,31.0399973 55.1802493,31.5767273 C54.3442138,32.1134572 53.9262024,32.7893293 53.9262024,33.6043636 C53.9262024,34.5187925 54.3093796,35.2244824 55.0757454,35.7214545 C55.8421112,36.2184267 56.7328737,36.4669091 57.7480597,36.4669091 C59.2011689,36.4669091 60.3954874,35.989823 61.3310509,35.0356364 Z M68.5356306,37.7192727 C68.4161969,37.5999994 68.356481,37.4409707 68.356481,37.2421818 L68.356481,17.3832727 C68.356481,17.1844839 68.4161969,17.0254551 68.5356306,16.9061818 C68.6550642,16.7869085 68.8143067,16.7272727 69.0133627,16.7272727 L69.5209531,16.7272727 C69.7200092,16.7272727 69.8792517,16.7869085 69.9986853,16.9061818 C70.1181189,17.0254551 70.1778349,17.1844839 70.1778349,17.3832727 L70.1778349,37.2421818 C70.1778349,37.4409707 70.1181189,37.5999994 69.9986853,37.7192727 C69.8792517,37.8385461 69.7200092,37.8981818 69.5209531,37.8981818 L69.0133627,37.8981818 C68.8143067,37.8981818 68.6550642,37.8385461 68.5356306,37.7192727 Z M73.9487147,19.0232727 C73.829281,18.9039994 73.7695651,18.7449707 73.7695651,18.5461818 L73.7695651,17.4130909 C73.7695651,17.214302 73.829281,17.0503037 73.9487147,16.9210909 C74.0681483,16.7918781 74.2273908,16.7272727 74.4264468,16.7272727 L75.5610607,16.7272727 C75.7601168,16.7272727 75.9243356,16.7918781 76.053722,16.9210909 C76.1831084,17.0503037 76.2478007,17.214302 76.2478007,17.4130909 L76.2478007,18.5461818 C76.2478007,18.7449707 76.1831084,18.9039994 76.053722,19.0232727 C75.9243356,19.1425461 75.7601168,19.2021818 75.5610607,19.2021818 L74.4264468,19.2021818 C74.2273908,19.2021818 74.0681483,19.1425461 73.9487147,19.0232727 Z M74.2771555,37.7192727 C74.1577219,37.5999994 74.098006,37.4409707 74.098006,37.2421818 L74.098006,23.0487273 C74.098006,22.8499384 74.1577219,22.6909097 74.2771555,22.5716364 C74.3965892,22.452363 74.5558316,22.3927273 74.7548877,22.3927273 L75.2624781,22.3927273 C75.4615342,22.3927273 75.6207766,22.452363 75.7402103,22.5716364 C75.8596439,22.6909097 75.9193598,22.8499384 75.9193598,23.0487273 L75.9193598,37.2421818 C75.9193598,37.4409707 75.8596439,37.5999994 75.7402103,37.7192727 C75.6207766,37.8385461 75.4615342,37.8981818 75.2624781,37.8981818 L74.7548877,37.8981818 C74.5558316,37.8981818 74.3965892,37.8385461 74.2771555,37.7192727 Z" id="Mali-Copy-6"></path>
                <path d="M82.5111168,36.1389091 C80.9087155,34.7672659 80.1075269,32.7098319 80.1075269,29.9665455 L80.1075269,17.8007273 C80.1075269,17.5820595 80.1771955,17.3981826 80.3165347,17.2490909 C80.4558739,17.0999993 80.6350217,17.0254545 80.8539834,17.0254545 L84.944565,17.0254545 C85.1635267,17.0254545 85.3476508,17.0999993 85.4969428,17.2490909 C85.6462349,17.3981826 85.7208798,17.5820595 85.7208798,17.8007273 L85.7208798,29.9069091 C85.7208798,31.1394001 86.0144831,32.0637545 86.6016984,32.68 C87.1889138,33.2962455 88.0299131,33.6043636 89.1247214,33.6043636 C90.2195297,33.6043636 91.060529,33.2912759 91.6477444,32.6650909 C92.2349598,32.038906 92.528563,31.1195212 92.528563,29.9069091 L92.528563,17.8007273 C92.528563,17.5820595 92.603208,17.3981826 92.7525,17.2490909 C92.901792,17.0999993 93.0859161,17.0254545 93.3048778,17.0254545 L97.3656012,17.0254545 C97.5845628,17.0254545 97.7686869,17.0999993 97.917979,17.2490909 C98.067271,17.3981826 98.1419159,17.5820595 98.1419159,17.8007273 L98.1419159,29.9665455 C98.1419159,32.7098319 97.3457036,34.7672659 95.7532551,36.1389091 C94.1608066,37.5105523 91.9612701,38.1963636 89.1545797,38.1963636 C86.3279836,38.1963636 84.1135181,37.5105523 82.5111168,36.1389091 Z M101.918986,37.6745455 C101.769694,37.5254538 101.695049,37.3515161 101.695049,37.1527273 L101.695049,23.168 C101.695049,22.9493322 101.764717,22.7654553 101.904057,22.6163636 C102.043396,22.467272 102.222544,22.3927273 102.441505,22.3927273 L106.084213,22.3927273 C106.303175,22.3927273 106.487299,22.467272 106.636591,22.6163636 C106.785883,22.7654553 106.860528,22.9493322 106.860528,23.168 L106.860528,24.3010909 C107.417885,23.6848454 108.069784,23.2127289 108.816244,22.8847273 C109.562704,22.5567256 110.393751,22.3927273 111.309409,22.3927273 L112.65303,22.3927273 C112.871992,22.3927273 113.05114,22.4623023 113.190479,22.6014545 C113.329818,22.7406068 113.399487,22.9195141 113.399487,23.1381818 L113.399487,26.3883636 C113.399487,26.5871525 113.329818,26.7610902 113.190479,26.9101818 C113.05114,27.0592735 112.871992,27.1338182 112.65303,27.1338182 L109.637346,27.1338182 C108.841122,27.1338182 108.229034,27.3524827 107.801063,27.7898182 C107.373093,28.2271537 107.15911,28.84339 107.15911,29.6385455 L107.15911,37.1527273 C107.15911,37.371395 107.084466,37.5503023 106.935174,37.6894545 C106.785881,37.8286068 106.601757,37.8981818 106.382796,37.8981818 L102.441505,37.8981818 C102.242449,37.8981818 102.068278,37.8236371 101.918986,37.6745455 Z M117.012336,36.2432727 C115.618944,34.9412056 114.902353,33.04777 114.862542,30.5629091 L114.862542,29.6385455 C114.942164,27.2729579 115.67866,25.4242491 117.072053,24.0923636 C118.465445,22.7604782 120.346497,22.0945455 122.715264,22.0945455 C124.427146,22.0945455 125.875257,22.4374511 127.059641,23.1232727 C128.244024,23.8090943 129.129811,24.7533273 129.717026,25.956 C130.304241,27.1586727 130.597845,28.5253257 130.597845,30.056 L130.597845,30.8014545 C130.597845,31.0201223 130.5232,31.2039993 130.373908,31.3530909 C130.224616,31.5021826 130.040491,31.5767273 129.82153,31.5767273 L120.356461,31.5767273 L120.356461,31.7556364 C120.376367,32.6501863 120.585373,33.3707851 120.983485,33.9174545 C121.381597,34.4641239 121.948898,34.7374545 122.685406,34.7374545 C123.16314,34.7374545 123.546317,34.6430312 123.834949,34.4541818 C124.12358,34.2653324 124.397278,34.0218197 124.656051,33.7236364 C124.835201,33.5248475 124.979515,33.4006063 125.088996,33.3509091 C125.198476,33.3012119 125.372648,33.2763636 125.611515,33.2763636 L129.522947,33.2763636 C129.702098,33.2763636 129.856364,33.3310298 129.98575,33.4403636 C130.115137,33.5496975 130.179829,33.683878 130.179829,33.8429091 C130.179829,34.3597602 129.886226,34.9660571 129.29901,35.6618182 C128.711795,36.3575792 127.855867,36.9539369 126.7312,37.4509091 C125.606533,37.9478813 124.277854,38.1963636 122.745122,38.1963636 C120.316638,38.1963636 118.405729,37.5453398 117.012336,36.2432727 Z M125.103925,28.5352727 L125.103925,28.4756364 C125.103925,27.5214498 124.894919,26.7809723 124.476901,26.2541818 C124.058884,25.7273913 123.471677,25.464 122.715264,25.464 C121.958851,25.464 121.376621,25.7273913 120.968556,26.2541818 C120.560491,26.7809723 120.356461,27.5214498 120.356461,28.4756364 L120.356461,28.5352727 L125.103925,28.5352727 Z M134.554064,36.3774545 C133.449303,35.1648424 132.85712,33.4354052 132.777498,31.1890909 L132.747639,30.1454545 L132.777498,29.072 C132.85712,26.9052013 133.454279,25.2006123 134.568993,23.9581818 C135.683707,22.7157514 137.19651,22.0945455 139.107449,22.0945455 C140.898953,22.0945455 142.342088,22.6710245 143.436896,23.824 L143.436896,17.4727273 C143.436896,17.2540595 143.511541,17.0751522 143.660833,16.936 C143.810125,16.7968478 143.984297,16.7272727 144.183353,16.7272727 L148.035068,16.7272727 C148.25403,16.7272727 148.438154,16.7968478 148.587446,16.936 C148.736738,17.0751522 148.811383,17.2540595 148.811383,17.4727273 L148.811383,37.1527273 C148.811383,37.371395 148.736738,37.5503023 148.587446,37.6894545 C148.438154,37.8286068 148.25403,37.8981818 148.035068,37.8981818 L144.481935,37.8981818 C144.282879,37.8981818 144.108708,37.8236371 143.959416,37.6745455 C143.810124,37.5254538 143.735479,37.3515161 143.735479,37.1527273 L143.735479,36.2283636 C142.660576,37.5403702 141.117915,38.1963636 139.107449,38.1963636 C137.176605,38.1963636 135.658825,37.5900667 134.554064,36.3774545 Z M142.750156,33.2316364 C143.168174,32.684967 143.397085,31.994186 143.436896,31.1592727 C143.476708,30.6026639 143.496613,30.2249707 143.496613,30.0261818 C143.496613,29.8075141 143.476708,29.4397602 143.436896,28.9229091 C143.397085,28.1476325 143.163198,27.506548 142.735227,26.9996364 C142.307257,26.4927247 141.675263,26.2392727 140.839228,26.2392727 C139.943475,26.2392727 139.301529,26.502664 138.91337,27.0294545 C138.525211,27.5562451 138.301276,28.2867832 138.241559,29.2210909 L138.211701,30.1454545 L138.241559,31.0698182 C138.301276,32.0041259 138.525211,32.734664 138.91337,33.2614545 C139.301529,33.7882451 139.943475,34.0516364 140.839228,34.0516364 C141.695169,34.0516364 142.332139,33.7783058 142.750156,33.2316364 Z" id="Ured-Copy-6"></path>
                <path d="M3.75581231,13.4205731 L2.80473336,10.3224165 C2.6912941,9.95137335 2.89784191,9.55930429 3.26605842,9.4467292 C3.63427493,9.33415412 4.02475306,9.54369403 4.13819233,9.91473713 L5.21442156,13.4205731 L7.17961212,13.4205731 L5.36275609,7.76126265 C4.89514359,6.23177107 5.05357663,4.60578107 5.80878808,3.18275962 C6.56232197,1.76292249 7.81379593,0.725271397 9.33284814,0.260850529 C10.8519004,-0.203570338 12.4696664,-0.0431339499 13.8883372,0.712593571 C15.3101793,1.47002294 16.3507684,2.72943511 16.8183809,4.25892669 L19.6193773,13.4205731 L26.4983072,13.4205731 L26.4983072,39.9305613 L0,39.9305613 L0,13.4205731 L3.75581231,13.4205731 Z M18.1612782,13.4205731 L15.4849219,4.66660601 C15.1274995,3.49753012 14.3301677,2.53387478 13.2397453,1.95301677 C12.1496588,1.37239003 10.9080884,1.24861009 9.74367566,1.60460679 C8.57926292,1.96060349 7.61915264,2.75743797 7.04013093,3.84842911 C6.46094147,4.93973868 6.33881137,6.18456853 6.69621506,7.35358333 L8.64395181,13.4205731 L15.0012482,13.4205731 L12.9289147,7.01004057 C12.8154754,6.63899747 13.0220232,6.24692841 13.3902397,6.13435332 C13.7584562,6.02177824 14.1489344,6.23131815 14.2623736,6.60236125 L16.4664977,13.4205731 L18.1612782,13.4205731 Z M3.75581231,13.4205731 L9.47275348,32.0436108 C10.0769039,34.0196978 11.4027349,35.6536612 13.2059661,36.6444469 C15.011851,37.6367587 17.0662907,37.8591064 18.9909569,37.2706769 C20.9155018,36.6822845 22.4943742,35.3491218 23.4366456,33.516681 C24.3776356,31.6867692 24.5631172,29.5908179 23.9589855,27.614792 L19.6193773,13.4205731 L18.1612782,13.4205731 L22.6255265,28.0224713 C23.1214661,29.6446168 22.9692679,31.3651396 22.1969104,32.8671349 C21.4279779,34.3623394 20.1435867,35.4490574 18.5801667,35.9270428 C17.0166861,36.4050468 15.344132,36.2223578 13.8706108,35.4127401 C12.3904717,34.599469 11.3021708,33.258138 10.8062311,31.6359926 L5.21442156,13.4205731 L3.75581231,13.4205731 Z M8.64395181,13.4205731 L7.17961212,13.4205731 L12.563998,30.1923539 C12.9356866,31.4080927 13.7267936,32.4257442 14.7915783,33.0575842 C15.8719405,33.6987535 17.0893285,33.8615833 18.2195562,33.516038 C19.3498445,33.1704742 20.2681123,32.3547089 20.8051752,31.2190431 C21.3344801,30.099841 21.4213719,28.8138919 21.0496459,27.598031 L16.4664977,13.4205731 L15.0012482,13.4205731 L19.716187,28.0057103 C20.2592763,29.7820753 19.3857864,31.6901269 17.8087287,32.1722818 C16.231671,32.6544367 14.4405462,31.5610396 13.8974569,29.7846746 L8.64395181,13.4205731 Z" id="Combined-Shape" fill-rule="nonzero"></path>
            </g>
        </g>
    </g>
</svg>